<svg xmlns="http://www.w3.org/2000/svg" width="1200" height="760" viewBox="0 0 1200 760">
<rect width="100%" height="100%" fill="white"/>
<style>text{font-family: Helvetica, Arial, sans-serif;} .tick{font-size:24px;fill:#111827;} .label{font-size:32px;fill:#111827;font-weight:500;} .split{font-size:28px;fill:#111827;font-weight:700;} .legend{font-size:26px;fill:#111827;}</style>
<line x1="130" y1="645.00" x2="1140" y2="645.00" stroke="#e5e7eb" stroke-width="1.6"/>
<line x1="130" y1="587.50" x2="1140" y2="587.50" stroke="#f3f4f6" stroke-width="1.0"/>
<line x1="130" y1="530.00" x2="1140" y2="530.00" stroke="#e5e7eb" stroke-width="1.6"/>
<line x1="130" y1="472.50" x2="1140" y2="472.50" stroke="#f3f4f6" stroke-width="1.0"/>
<line x1="130" y1="415.00" x2="1140" y2="415.00" stroke="#e5e7eb" stroke-width="1.6"/>
<line x1="130" y1="357.50" x2="1140" y2="357.50" stroke="#f3f4f6" stroke-width="1.0"/>
<line x1="130" y1="300.00" x2="1140" y2="300.00" stroke="#e5e7eb" stroke-width="1.6"/>
<line x1="130" y1="242.50" x2="1140" y2="242.50" stroke="#f3f4f6" stroke-width="1.0"/>
<line x1="130" y1="185.00" x2="1140" y2="185.00" stroke="#e5e7eb" stroke-width="1.6"/>
<line x1="130" y1="127.50" x2="1140" y2="127.50" stroke="#f3f4f6" stroke-width="1.0"/>
<line x1="130" y1="70.00" x2="1140" y2="70.00" stroke="#e5e7eb" stroke-width="1.6"/>
<line x1="130.00" y1="70" x2="130.00" y2="645" stroke="#f3f4f6" stroke-width="1.0"/>
<line x1="242.22" y1="70" x2="242.22" y2="645" stroke="#f3f4f6" stroke-width="1.0"/>
<line x1="354.44" y1="70" x2="354.44" y2="645" stroke="#f3f4f6" stroke-width="1.0"/>
<line x1="466.67" y1="70" x2="466.67" y2="645" stroke="#f3f4f6" stroke-width="1.0"/>
<line x1="578.89" y1="70" x2="578.89" y2="645" stroke="#f3f4f6" stroke-width="1.0"/>
<line x1="691.11" y1="70" x2="691.11" y2="645" stroke="#f3f4f6" stroke-width="1.0"/>
<line x1="803.33" y1="70" x2="803.33" y2="645" stroke="#f3f4f6" stroke-width="1.0"/>
<line x1="915.56" y1="70" x2="915.56" y2="645" stroke="#f3f4f6" stroke-width="1.0"/>
<line x1="1027.78" y1="70" x2="1027.78" y2="645" stroke="#f3f4f6" stroke-width="1.0"/>
<line x1="1140.00" y1="70" x2="1140.00" y2="645" stroke="#f3f4f6" stroke-width="1.0"/>
<line x1="130" y1="645" x2="1140" y2="645" stroke="#111827" stroke-width="3"/>
<line x1="130" y1="70" x2="130" y2="645" stroke="#111827" stroke-width="3"/>
<line x1="120" y1="645.00" x2="130" y2="645.00" stroke="#111827" stroke-width="2"/>
<text class="tick" x="110" y="653.00" text-anchor="end">0</text>
<line x1="120" y1="530.00" x2="130" y2="530.00" stroke="#111827" stroke-width="2"/>
<text class="tick" x="110" y="538.00" text-anchor="end">20</text>
<line x1="120" y1="415.00" x2="130" y2="415.00" stroke="#111827" stroke-width="2"/>
<text class="tick" x="110" y="423.00" text-anchor="end">40</text>
<line x1="120" y1="300.00" x2="130" y2="300.00" stroke="#111827" stroke-width="2"/>
<text class="tick" x="110" y="308.00" text-anchor="end">60</text>
<line x1="120" y1="185.00" x2="130" y2="185.00" stroke="#111827" stroke-width="2"/>
<text class="tick" x="110" y="193.00" text-anchor="end">80</text>
<line x1="120" y1="70.00" x2="130" y2="70.00" stroke="#111827" stroke-width="2"/>
<text class="tick" x="110" y="78.00" text-anchor="end">100</text>
<line x1="130.00" y1="645" x2="130.00" y2="655" stroke="#111827" stroke-width="2"/>
<text class="tick" x="130.00" y="687" text-anchor="middle">1</text>
<line x1="242.22" y1="645" x2="242.22" y2="655" stroke="#111827" stroke-width="2"/>
<text class="tick" x="242.22" y="687" text-anchor="middle">2</text>
<line x1="354.44" y1="645" x2="354.44" y2="655" stroke="#111827" stroke-width="2"/>
<text class="tick" x="354.44" y="687" text-anchor="middle">3</text>
<line x1="466.67" y1="645" x2="466.67" y2="655" stroke="#111827" stroke-width="2"/>
<text class="tick" x="466.67" y="687" text-anchor="middle">4</text>
<line x1="578.89" y1="645" x2="578.89" y2="655" stroke="#111827" stroke-width="2"/>
<text class="tick" x="578.89" y="687" text-anchor="middle">5</text>
<line x1="691.11" y1="645" x2="691.11" y2="655" stroke="#111827" stroke-width="2"/>
<text class="tick" x="691.11" y="687" text-anchor="middle">6</text>
<line x1="803.33" y1="645" x2="803.33" y2="655" stroke="#111827" stroke-width="2"/>
<text class="tick" x="803.33" y="687" text-anchor="middle">7</text>
<line x1="915.56" y1="645" x2="915.56" y2="655" stroke="#111827" stroke-width="2"/>
<text class="tick" x="915.56" y="687" text-anchor="middle">8</text>
<line x1="1027.78" y1="645" x2="1027.78" y2="655" stroke="#111827" stroke-width="2"/>
<text class="tick" x="1027.78" y="687" text-anchor="middle">9</text>
<line x1="1140.00" y1="645" x2="1140.00" y2="655" stroke="#111827" stroke-width="2"/>
<text class="tick" x="1140.00" y="687" text-anchor="middle">10</text>
<text class="label" x="635.00" y="732" text-anchor="middle">Epoch</text>
<text class="label" x="38" y="357.50" text-anchor="middle" transform="rotate(-90 38 357.50)">Accuracy</text>
<text class="split" x="138" y="105">Validation Set</text>
<polyline fill="none" stroke="#2563eb" stroke-width="5" stroke-linecap="round" stroke-linejoin="round" points="130.00,484.01 242.22,317.62 354.44,182.84 466.67,100.19 578.89,98.77 691.11,77.54 803.33,77.30 915.56,77.58 1027.78,75.97 1140.00,74.85"/>
<polyline fill="none" stroke="#ea580c" stroke-width="5" stroke-linecap="round" stroke-linejoin="round" points="130.00,499.00 242.22,490.38 354.44,450.40 466.67,426.28 578.89,360.99 691.11,293.21 803.33,278.92 915.56,259.13 1027.78,236.07 1140.00,232.30"/>
<circle cx="130.00" cy="484.01" r="6" fill="#2563eb" stroke="white" stroke-width="2"/>
<circle cx="242.22" cy="317.62" r="6" fill="#2563eb" stroke="white" stroke-width="2"/>
<circle cx="354.44" cy="182.84" r="6" fill="#2563eb" stroke="white" stroke-width="2"/>
<circle cx="466.67" cy="100.19" r="6" fill="#2563eb" stroke="white" stroke-width="2"/>
<circle cx="578.89" cy="98.77" r="6" fill="#2563eb" stroke="white" stroke-width="2"/>
<circle cx="691.11" cy="77.54" r="6" fill="#2563eb" stroke="white" stroke-width="2"/>
<circle cx="803.33" cy="77.30" r="6" fill="#2563eb" stroke="white" stroke-width="2"/>
<circle cx="915.56" cy="77.58" r="6" fill="#2563eb" stroke="white" stroke-width="2"/>
<circle cx="1027.78" cy="75.97" r="6" fill="#2563eb" stroke="white" stroke-width="2"/>
<circle cx="1140.00" cy="74.85" r="6" fill="#2563eb" stroke="white" stroke-width="2"/>
<rect x="125.00" y="494.00" width="10" height="10" rx="1.5" fill="#ea580c" stroke="white" stroke-width="2"/>
<rect x="237.22" y="485.38" width="10" height="10" rx="1.5" fill="#ea580c" stroke="white" stroke-width="2"/>
<rect x="349.44" y="445.40" width="10" height="10" rx="1.5" fill="#ea580c" stroke="white" stroke-width="2"/>
<rect x="461.67" y="421.28" width="10" height="10" rx="1.5" fill="#ea580c" stroke="white" stroke-width="2"/>
<rect x="573.89" y="355.99" width="10" height="10" rx="1.5" fill="#ea580c" stroke="white" stroke-width="2"/>
<rect x="686.11" y="288.21" width="10" height="10" rx="1.5" fill="#ea580c" stroke="white" stroke-width="2"/>
<rect x="798.33" y="273.92" width="10" height="10" rx="1.5" fill="#ea580c" stroke="white" stroke-width="2"/>
<rect x="910.56" y="254.13" width="10" height="10" rx="1.5" fill="#ea580c" stroke="white" stroke-width="2"/>
<rect x="1022.78" y="231.07" width="10" height="10" rx="1.5" fill="#ea580c" stroke="white" stroke-width="2"/>
<rect x="1135.00" y="227.30" width="10" height="10" rx="1.5" fill="#ea580c" stroke="white" stroke-width="2"/>
<line x1="780" y1="557" x2="850" y2="557" stroke="#2563eb" stroke-width="5" stroke-linecap="round"/>
<circle cx="815.00" cy="557.00" r="6" fill="#2563eb" stroke="white" stroke-width="2"/>
<text class="legend" x="872" y="566">Question+Passage</text>
<line x1="780" y1="599" x2="850" y2="599" stroke="#ea580c" stroke-width="5" stroke-linecap="round"/>
<rect x="810.00" y="594.00" width="10" height="10" rx="1.5" fill="#ea580c" stroke="white" stroke-width="2"/>
<text class="legend" x="872" y="608">Passage-only</text>
</svg>