<svg xmlns="http://www.w3.org/2000/svg" width="1400" height="790" viewBox="0 0 1400 790">
<defs>
<marker id="arrowRed" markerWidth="10" markerHeight="10" refX="7" refY="3" orient="auto" markerUnits="strokeWidth"><path d="M0,0 L0,6 L8,3 z" fill="#D33F49"/></marker>
</defs>
<rect width="100%" height="100%" fill="white"/>
<text x="700.0" y="32" text-anchor="middle" font-size="25" font-weight="700" fill="#1F2328">Learning Dynamics from Step 0 with Epoch 4 Drop</text>
<line x1="495.0" y1="72" x2="539.0" y2="72" stroke="#2459A6" stroke-width="4"/><circle cx="517.0" cy="72" r="5" fill="#2459A6"/>
<text x="553.0" y="77" font-size="17" fill="#1F2328">Question+Passage</text>
<line x1="795.0" y1="72" x2="839.0" y2="72" stroke="#CC6B24" stroke-width="4"/><rect x="812.0" y="67" width="10" height="10" fill="#CC6B24"/>
<text x="853.0" y="77" font-size="17" fill="#1F2328">Passage-only</text>
<text x="699.5" y="97" text-anchor="middle" font-size="23" font-weight="700" fill="#1F2328">(a) Hit Rate</text>
<line x1="628.03" y1="125" x2="628.03" y2="386" stroke="#59636E" stroke-width="1.4" stroke-dasharray="5,5" opacity="0.7"/>
<rect x="852.45" y="135" width="51.46" height="235" fill="#D33F49" opacity="0.11"/>
<line x1="92" y1="370.00" x2="1307" y2="370.00" stroke="#D7DCE2" stroke-width="1" opacity="0.72"/>
<text x="82" y="375.00" text-anchor="end" font-size="14" fill="#59636E">0</text>
<line x1="92" y1="323.00" x2="1307" y2="323.00" stroke="#D7DCE2" stroke-width="1" opacity="0.72"/>
<text x="82" y="328.00" text-anchor="end" font-size="14" fill="#59636E">20</text>
<line x1="92" y1="276.00" x2="1307" y2="276.00" stroke="#D7DCE2" stroke-width="1" opacity="0.72"/>
<text x="82" y="281.00" text-anchor="end" font-size="14" fill="#59636E">40</text>
<line x1="92" y1="229.00" x2="1307" y2="229.00" stroke="#D7DCE2" stroke-width="1" opacity="0.72"/>
<text x="82" y="234.00" text-anchor="end" font-size="14" fill="#59636E">60</text>
<line x1="92" y1="182.00" x2="1307" y2="182.00" stroke="#D7DCE2" stroke-width="1" opacity="0.72"/>
<text x="82" y="187.00" text-anchor="end" font-size="14" fill="#59636E">80</text>
<line x1="92" y1="135.00" x2="1307" y2="135.00" stroke="#D7DCE2" stroke-width="1" opacity="0.72"/>
<text x="82" y="140.00" text-anchor="end" font-size="14" fill="#59636E">100</text>
<line x1="92.00" y1="135" x2="92.00" y2="370" stroke="#D7DCE2" stroke-width="1" opacity="0.35"/>
<text x="92.00" y="401" text-anchor="middle" font-size="13" font-weight="500" fill="#59636E">S0</text>
<line x1="306.41" y1="135" x2="306.41" y2="370" stroke="#D7DCE2" stroke-width="1" opacity="0.35"/>
<text x="306.41" y="401" text-anchor="middle" font-size="13" font-weight="500" fill="#59636E">S500</text>
<line x1="377.88" y1="135" x2="377.88" y2="370" stroke="#D7DCE2" stroke-width="1" opacity="0.35"/>
<text x="377.88" y="401" text-anchor="middle" font-size="13" font-weight="500" fill="#59636E">S1k</text>
<line x1="520.82" y1="135" x2="520.82" y2="370" stroke="#D7DCE2" stroke-width="1" opacity="0.35"/>
<text x="520.82" y="401" text-anchor="middle" font-size="13" font-weight="500" fill="#59636E">S2.4k</text>
<line x1="592.29" y1="135" x2="592.29" y2="370" stroke="#D7DCE2" stroke-width="1" opacity="0.35"/>
<text x="592.29" y="401" text-anchor="middle" font-size="13" font-weight="500" fill="#59636E">S3.2k</text>
<line x1="663.76" y1="135" x2="663.76" y2="370" stroke="#D7DCE2" stroke-width="1" opacity="0.35"/>
<text x="663.76" y="401" text-anchor="middle" font-size="13" font-weight="500" fill="#59636E">E1</text>
<line x1="735.24" y1="135" x2="735.24" y2="370" stroke="#D7DCE2" stroke-width="1" opacity="0.35"/>
<text x="735.24" y="401" text-anchor="middle" font-size="13" font-weight="500" fill="#59636E">E2</text>
<line x1="806.71" y1="135" x2="806.71" y2="370" stroke="#D7DCE2" stroke-width="1" opacity="0.35"/>
<text x="806.71" y="401" text-anchor="middle" font-size="13" font-weight="500" fill="#59636E">E3</text>
<line x1="878.18" y1="135" x2="878.18" y2="370" stroke="#D7DCE2" stroke-width="1" opacity="0.35"/>
<text x="878.18" y="401" text-anchor="middle" font-size="13" font-weight="700" fill="#D33F49">E4</text>
<line x1="949.65" y1="135" x2="949.65" y2="370" stroke="#D7DCE2" stroke-width="1" opacity="0.35"/>
<text x="949.65" y="401" text-anchor="middle" font-size="13" font-weight="500" fill="#59636E">E5</text>
<line x1="1092.59" y1="135" x2="1092.59" y2="370" stroke="#D7DCE2" stroke-width="1" opacity="0.35"/>
<text x="1092.59" y="401" text-anchor="middle" font-size="13" font-weight="500" fill="#59636E">E7</text>
<line x1="1307.00" y1="135" x2="1307.00" y2="370" stroke="#D7DCE2" stroke-width="1" opacity="0.35"/>
<text x="1307.00" y="401" text-anchor="middle" font-size="13" font-weight="500" fill="#59636E">E10</text>
<line x1="92" y1="370" x2="1307" y2="370" stroke="#1F2328" stroke-width="1.5"/>
<line x1="92" y1="135" x2="92" y2="370" stroke="#1F2328" stroke-width="1.5"/>
<text x="699.5" y="436" text-anchor="middle" font-size="16" fill="#1F2328">Training Progress</text>
<text x="38" y="252.5" transform="rotate(-90 38,252.5)" text-anchor="middle" font-size="16" fill="#1F2328">Hit Rate (%)</text>
<path d="M92.00,360.60 L163.47,351.20 L234.94,325.35 L306.41,280.70 L377.88,200.80 L449.35,177.30 L520.82,170.25 L592.29,172.60 L663.76,149.10 L735.24,150.86 L806.71,142.05 L878.18,187.29 L949.65,140.29 L1021.12,143.81 L1092.59,142.64 L1164.06,142.05 L1235.53,140.88 L1307.00,140.29" fill="none" stroke="#2459A6" stroke-width="3.1" stroke-linecap="round" stroke-linejoin="round"/>
<path d="M92.00,360.60 L163.47,358.25 L234.94,358.25 L306.41,339.45 L377.88,325.35 L449.35,304.20 L520.82,276.00 L592.29,268.95 L663.76,213.14 L735.24,231.35 L806.71,178.48 L878.18,174.36 L949.65,186.11 L1021.12,182.59 L1092.59,186.11 L1164.06,189.64 L1235.53,190.81 L1307.00,201.97" fill="none" stroke="#CC6B24" stroke-width="3.1" stroke-linecap="round" stroke-linejoin="round"/>
<circle cx="92.00" cy="360.60" r="4.4" fill="#2459A6" stroke="white" stroke-width="1.1"/>
<circle cx="163.47" cy="351.20" r="4.4" fill="#2459A6" stroke="white" stroke-width="1.1"/>
<circle cx="234.94" cy="325.35" r="4.4" fill="#2459A6" stroke="white" stroke-width="1.1"/>
<circle cx="306.41" cy="280.70" r="4.4" fill="#2459A6" stroke="white" stroke-width="1.1"/>
<circle cx="377.88" cy="200.80" r="4.4" fill="#2459A6" stroke="white" stroke-width="1.1"/>
<circle cx="449.35" cy="177.30" r="4.4" fill="#2459A6" stroke="white" stroke-width="1.1"/>
<circle cx="520.82" cy="170.25" r="4.4" fill="#2459A6" stroke="white" stroke-width="1.1"/>
<circle cx="592.29" cy="172.60" r="4.4" fill="#2459A6" stroke="white" stroke-width="1.1"/>
<circle cx="663.76" cy="149.10" r="4.4" fill="#2459A6" stroke="white" stroke-width="1.1"/>
<circle cx="735.24" cy="150.86" r="4.4" fill="#2459A6" stroke="white" stroke-width="1.1"/>
<circle cx="806.71" cy="142.05" r="4.4" fill="#2459A6" stroke="white" stroke-width="1.1"/>
<circle cx="878.18" cy="187.29" r="5.8" fill="#D33F49" stroke="white" stroke-width="1.1"/>
<circle cx="949.65" cy="140.29" r="4.4" fill="#2459A6" stroke="white" stroke-width="1.1"/>
<circle cx="1021.12" cy="143.81" r="4.4" fill="#2459A6" stroke="white" stroke-width="1.1"/>
<circle cx="1092.59" cy="142.64" r="4.4" fill="#2459A6" stroke="white" stroke-width="1.1"/>
<circle cx="1164.06" cy="142.05" r="4.4" fill="#2459A6" stroke="white" stroke-width="1.1"/>
<circle cx="1235.53" cy="140.88" r="4.4" fill="#2459A6" stroke="white" stroke-width="1.1"/>
<circle cx="1307.00" cy="140.29" r="4.4" fill="#2459A6" stroke="white" stroke-width="1.1"/>
<rect x="87.90" y="356.50" width="8.20" height="8.20" fill="#CC6B24" stroke="white" stroke-width="1"/>
<rect x="159.37" y="354.15" width="8.20" height="8.20" fill="#CC6B24" stroke="white" stroke-width="1"/>
<rect x="230.84" y="354.15" width="8.20" height="8.20" fill="#CC6B24" stroke="white" stroke-width="1"/>
<rect x="302.31" y="335.35" width="8.20" height="8.20" fill="#CC6B24" stroke="white" stroke-width="1"/>
<rect x="373.78" y="321.25" width="8.20" height="8.20" fill="#CC6B24" stroke="white" stroke-width="1"/>
<rect x="445.25" y="300.10" width="8.20" height="8.20" fill="#CC6B24" stroke="white" stroke-width="1"/>
<rect x="516.72" y="271.90" width="8.20" height="8.20" fill="#CC6B24" stroke="white" stroke-width="1"/>
<rect x="588.19" y="264.85" width="8.20" height="8.20" fill="#CC6B24" stroke="white" stroke-width="1"/>
<rect x="659.66" y="209.04" width="8.20" height="8.20" fill="#CC6B24" stroke="white" stroke-width="1"/>
<rect x="731.14" y="227.25" width="8.20" height="8.20" fill="#CC6B24" stroke="white" stroke-width="1"/>
<rect x="802.61" y="174.38" width="8.20" height="8.20" fill="#CC6B24" stroke="white" stroke-width="1"/>
<rect x="873.28" y="169.46" width="9.80" height="9.80" fill="white" stroke="#D33F49" stroke-width="2.1"/>
<rect x="945.55" y="182.01" width="8.20" height="8.20" fill="#CC6B24" stroke="white" stroke-width="1"/>
<rect x="1017.02" y="178.49" width="8.20" height="8.20" fill="#CC6B24" stroke="white" stroke-width="1"/>
<rect x="1088.49" y="182.01" width="8.20" height="8.20" fill="#CC6B24" stroke="white" stroke-width="1"/>
<rect x="1159.96" y="185.54" width="8.20" height="8.20" fill="#CC6B24" stroke="white" stroke-width="1"/>
<rect x="1231.43" y="186.71" width="8.20" height="8.20" fill="#CC6B24" stroke="white" stroke-width="1"/>
<rect x="1302.90" y="197.88" width="8.20" height="8.20" fill="#CC6B24" stroke="white" stroke-width="1"/>
<line x1="930.18" y1="205.00" x2="885.18" y2="180.29" stroke="#D33F49" stroke-width="1.8" marker-end="url(#arrowRed)"/>
<text x="936.18" y="198.00" font-size="14" fill="#D33F49" font-weight="700">Epoch 4 drop</text><text x="699.5" y="430" text-anchor="middle" font-size="23" font-weight="700" fill="#1F2328">(b) Token F1</text>
<line x1="628.03" y1="458" x2="628.03" y2="719" stroke="#59636E" stroke-width="1.4" stroke-dasharray="5,5" opacity="0.7"/>
<rect x="852.45" y="468" width="51.46" height="235" fill="#D33F49" opacity="0.11"/>
<line x1="92" y1="703.00" x2="1307" y2="703.00" stroke="#D7DCE2" stroke-width="1" opacity="0.72"/>
<text x="82" y="708.00" text-anchor="end" font-size="14" fill="#59636E">0</text>
<line x1="92" y1="656.00" x2="1307" y2="656.00" stroke="#D7DCE2" stroke-width="1" opacity="0.72"/>
<text x="82" y="661.00" text-anchor="end" font-size="14" fill="#59636E">18</text>
<line x1="92" y1="609.00" x2="1307" y2="609.00" stroke="#D7DCE2" stroke-width="1" opacity="0.72"/>
<text x="82" y="614.00" text-anchor="end" font-size="14" fill="#59636E">36</text>
<line x1="92" y1="562.00" x2="1307" y2="562.00" stroke="#D7DCE2" stroke-width="1" opacity="0.72"/>
<text x="82" y="567.00" text-anchor="end" font-size="14" fill="#59636E">54</text>
<line x1="92" y1="515.00" x2="1307" y2="515.00" stroke="#D7DCE2" stroke-width="1" opacity="0.72"/>
<text x="82" y="520.00" text-anchor="end" font-size="14" fill="#59636E">72</text>
<line x1="92" y1="468.00" x2="1307" y2="468.00" stroke="#D7DCE2" stroke-width="1" opacity="0.72"/>
<text x="82" y="473.00" text-anchor="end" font-size="14" fill="#59636E">90</text>
<line x1="92.00" y1="468" x2="92.00" y2="703" stroke="#D7DCE2" stroke-width="1" opacity="0.35"/>
<text x="92.00" y="734" text-anchor="middle" font-size="13" font-weight="500" fill="#59636E">S0</text>
<line x1="306.41" y1="468" x2="306.41" y2="703" stroke="#D7DCE2" stroke-width="1" opacity="0.35"/>
<text x="306.41" y="734" text-anchor="middle" font-size="13" font-weight="500" fill="#59636E">S500</text>
<line x1="377.88" y1="468" x2="377.88" y2="703" stroke="#D7DCE2" stroke-width="1" opacity="0.35"/>
<text x="377.88" y="734" text-anchor="middle" font-size="13" font-weight="500" fill="#59636E">S1k</text>
<line x1="520.82" y1="468" x2="520.82" y2="703" stroke="#D7DCE2" stroke-width="1" opacity="0.35"/>
<text x="520.82" y="734" text-anchor="middle" font-size="13" font-weight="500" fill="#59636E">S2.4k</text>
<line x1="592.29" y1="468" x2="592.29" y2="703" stroke="#D7DCE2" stroke-width="1" opacity="0.35"/>
<text x="592.29" y="734" text-anchor="middle" font-size="13" font-weight="500" fill="#59636E">S3.2k</text>
<line x1="663.76" y1="468" x2="663.76" y2="703" stroke="#D7DCE2" stroke-width="1" opacity="0.35"/>
<text x="663.76" y="734" text-anchor="middle" font-size="13" font-weight="500" fill="#59636E">E1</text>
<line x1="735.24" y1="468" x2="735.24" y2="703" stroke="#D7DCE2" stroke-width="1" opacity="0.35"/>
<text x="735.24" y="734" text-anchor="middle" font-size="13" font-weight="500" fill="#59636E">E2</text>
<line x1="806.71" y1="468" x2="806.71" y2="703" stroke="#D7DCE2" stroke-width="1" opacity="0.35"/>
<text x="806.71" y="734" text-anchor="middle" font-size="13" font-weight="500" fill="#59636E">E3</text>
<line x1="878.18" y1="468" x2="878.18" y2="703" stroke="#D7DCE2" stroke-width="1" opacity="0.35"/>
<text x="878.18" y="734" text-anchor="middle" font-size="13" font-weight="700" fill="#D33F49">E4</text>
<line x1="949.65" y1="468" x2="949.65" y2="703" stroke="#D7DCE2" stroke-width="1" opacity="0.35"/>
<text x="949.65" y="734" text-anchor="middle" font-size="13" font-weight="500" fill="#59636E">E5</text>
<line x1="1092.59" y1="468" x2="1092.59" y2="703" stroke="#D7DCE2" stroke-width="1" opacity="0.35"/>
<text x="1092.59" y="734" text-anchor="middle" font-size="13" font-weight="500" fill="#59636E">E7</text>
<line x1="1307.00" y1="468" x2="1307.00" y2="703" stroke="#D7DCE2" stroke-width="1" opacity="0.35"/>
<text x="1307.00" y="734" text-anchor="middle" font-size="13" font-weight="500" fill="#59636E">E10</text>
<line x1="92" y1="703" x2="1307" y2="703" stroke="#1F2328" stroke-width="1.5"/>
<line x1="92" y1="468" x2="92" y2="703" stroke="#1F2328" stroke-width="1.5"/>
<text x="699.5" y="769" text-anchor="middle" font-size="16" fill="#1F2328">Training Progress</text>
<text x="38" y="585.5" transform="rotate(-90 38,585.5)" text-anchor="middle" font-size="16" fill="#1F2328">Token F1 (%)</text>
<path d="M92.00,658.80 L163.47,613.91 L234.94,633.49 L306.41,584.87 L377.88,543.37 L449.35,517.99 L520.82,510.14 L592.29,512.23 L663.76,492.12 L735.24,490.12 L806.71,487.43 L878.18,526.00 L949.65,483.65 L1021.12,486.13 L1092.59,487.47 L1164.06,486.28 L1235.53,486.33 L1307.00,487.82" fill="none" stroke="#2459A6" stroke-width="3.1" stroke-linecap="round" stroke-linejoin="round"/>
<path d="M92.00,652.07 L163.47,622.21 L234.94,623.15 L306.41,621.21 L377.88,610.66 L449.35,594.52 L520.82,575.67 L592.29,571.15 L663.76,535.24 L735.24,531.55 L806.71,505.61 L878.18,508.05 L949.65,511.17 L1021.12,511.70 L1092.59,513.13 L1164.06,516.83 L1235.53,519.69 L1307.00,525.25" fill="none" stroke="#CC6B24" stroke-width="3.1" stroke-linecap="round" stroke-linejoin="round"/>
<circle cx="92.00" cy="658.80" r="4.4" fill="#2459A6" stroke="white" stroke-width="1.1"/>
<circle cx="163.47" cy="613.91" r="4.4" fill="#2459A6" stroke="white" stroke-width="1.1"/>
<circle cx="234.94" cy="633.49" r="4.4" fill="#2459A6" stroke="white" stroke-width="1.1"/>
<circle cx="306.41" cy="584.87" r="4.4" fill="#2459A6" stroke="white" stroke-width="1.1"/>
<circle cx="377.88" cy="543.37" r="4.4" fill="#2459A6" stroke="white" stroke-width="1.1"/>
<circle cx="449.35" cy="517.99" r="4.4" fill="#2459A6" stroke="white" stroke-width="1.1"/>
<circle cx="520.82" cy="510.14" r="4.4" fill="#2459A6" stroke="white" stroke-width="1.1"/>
<circle cx="592.29" cy="512.23" r="4.4" fill="#2459A6" stroke="white" stroke-width="1.1"/>
<circle cx="663.76" cy="492.12" r="4.4" fill="#2459A6" stroke="white" stroke-width="1.1"/>
<circle cx="735.24" cy="490.12" r="4.4" fill="#2459A6" stroke="white" stroke-width="1.1"/>
<circle cx="806.71" cy="487.43" r="4.4" fill="#2459A6" stroke="white" stroke-width="1.1"/>
<circle cx="878.18" cy="526.00" r="5.8" fill="#D33F49" stroke="white" stroke-width="1.1"/>
<circle cx="949.65" cy="483.65" r="4.4" fill="#2459A6" stroke="white" stroke-width="1.1"/>
<circle cx="1021.12" cy="486.13" r="4.4" fill="#2459A6" stroke="white" stroke-width="1.1"/>
<circle cx="1092.59" cy="487.47" r="4.4" fill="#2459A6" stroke="white" stroke-width="1.1"/>
<circle cx="1164.06" cy="486.28" r="4.4" fill="#2459A6" stroke="white" stroke-width="1.1"/>
<circle cx="1235.53" cy="486.33" r="4.4" fill="#2459A6" stroke="white" stroke-width="1.1"/>
<circle cx="1307.00" cy="487.82" r="4.4" fill="#2459A6" stroke="white" stroke-width="1.1"/>
<rect x="87.90" y="647.97" width="8.20" height="8.20" fill="#CC6B24" stroke="white" stroke-width="1"/>
<rect x="159.37" y="618.11" width="8.20" height="8.20" fill="#CC6B24" stroke="white" stroke-width="1"/>
<rect x="230.84" y="619.05" width="8.20" height="8.20" fill="#CC6B24" stroke="white" stroke-width="1"/>
<rect x="302.31" y="617.11" width="8.20" height="8.20" fill="#CC6B24" stroke="white" stroke-width="1"/>
<rect x="373.78" y="606.56" width="8.20" height="8.20" fill="#CC6B24" stroke="white" stroke-width="1"/>
<rect x="445.25" y="590.42" width="8.20" height="8.20" fill="#CC6B24" stroke="white" stroke-width="1"/>
<rect x="516.72" y="571.57" width="8.20" height="8.20" fill="#CC6B24" stroke="white" stroke-width="1"/>
<rect x="588.19" y="567.05" width="8.20" height="8.20" fill="#CC6B24" stroke="white" stroke-width="1"/>
<rect x="659.66" y="531.14" width="8.20" height="8.20" fill="#CC6B24" stroke="white" stroke-width="1"/>
<rect x="731.14" y="527.45" width="8.20" height="8.20" fill="#CC6B24" stroke="white" stroke-width="1"/>
<rect x="802.61" y="501.51" width="8.20" height="8.20" fill="#CC6B24" stroke="white" stroke-width="1"/>
<rect x="873.28" y="503.15" width="9.80" height="9.80" fill="white" stroke="#D33F49" stroke-width="2.1"/>
<rect x="945.55" y="507.07" width="8.20" height="8.20" fill="#CC6B24" stroke="white" stroke-width="1"/>
<rect x="1017.02" y="507.60" width="8.20" height="8.20" fill="#CC6B24" stroke="white" stroke-width="1"/>
<rect x="1088.49" y="509.03" width="8.20" height="8.20" fill="#CC6B24" stroke="white" stroke-width="1"/>
<rect x="1159.96" y="512.73" width="8.20" height="8.20" fill="#CC6B24" stroke="white" stroke-width="1"/>
<rect x="1231.43" y="515.59" width="8.20" height="8.20" fill="#CC6B24" stroke="white" stroke-width="1"/>
<rect x="1302.90" y="521.15" width="8.20" height="8.20" fill="#CC6B24" stroke="white" stroke-width="1"/>
<line x1="930.18" y1="538.00" x2="885.18" y2="519.00" stroke="#D33F49" stroke-width="1.8" marker-end="url(#arrowRed)"/>
<text x="936.18" y="531.00" font-size="14" fill="#D33F49" font-weight="700">Epoch 4 drop</text>
<text x="700.0" y="769" text-anchor="middle" font-size="14" fill="#59636E">Early-step points use the 100-case step evaluation; epoch points use the 400-case epoch evaluation. Epoch 4 is raw, not interpolated.</text>
</svg>
